<svg width="211" height="54" viewBox="0 0 211 54" fill="none" xmlns="http://www.w3.org/2000/svg">
<path d="M10.404 40.288C8.652 40.288 7.092 39.988 5.724 39.388C4.356 38.788 3.276 37.972 2.484 36.94C1.692 35.884 1.248 34.708 1.152 33.412H7.236C7.308 34.108 7.632 34.672 8.208 35.104C8.784 35.536 9.492 35.752 10.332 35.752C11.1 35.752 11.688 35.608 12.096 35.32C12.528 35.008 12.744 34.612 12.744 34.132C12.744 33.556 12.444 33.136 11.844 32.872C11.244 32.584 10.272 32.272 8.928 31.936C7.488 31.6 6.288 31.252 5.328 30.892C4.368 30.508 3.54 29.92 2.844 29.128C2.148 28.312 1.8 27.22 1.8 25.852C1.8 24.7 2.112 23.656 2.736 22.72C3.384 21.76 4.32 21.004 5.544 20.452C6.792 19.9 8.268 19.624 9.972 19.624C12.492 19.624 14.472 20.248 15.912 21.496C17.376 22.744 18.216 24.4 18.432 26.464H12.744C12.648 25.768 12.336 25.216 11.808 24.808C11.304 24.4 10.632 24.196 9.792 24.196C9.072 24.196 8.52 24.34 8.136 24.628C7.752 24.892 7.56 25.264 7.56 25.744C7.56 26.32 7.86 26.752 8.46 27.04C9.084 27.328 10.044 27.616 11.34 27.904C12.828 28.288 14.04 28.672 14.976 29.056C15.912 29.416 16.728 30.016 17.424 30.856C18.144 31.672 18.516 32.776 18.54 34.168C18.54 35.344 18.204 36.4 17.532 37.336C16.884 38.248 15.936 38.968 14.688 39.496C13.464 40.024 12.036 40.288 10.404 40.288ZM21.0822 29.92C21.0822 27.856 21.4662 26.044 22.2342 24.484C23.0262 22.924 24.0942 21.724 25.4382 20.884C26.7822 20.044 28.2822 19.624 29.9382 19.624C31.3542 19.624 32.5902 19.912 33.6462 20.488C34.7262 21.064 35.5542 21.82 36.1302 22.756V19.912H42.2862V40H36.1302V37.156C35.5302 38.092 34.6902 38.848 33.6102 39.424C32.5542 40 31.3182 40.288 29.9022 40.288C28.2702 40.288 26.7822 39.868 25.4382 39.028C24.0942 38.164 23.0262 36.952 22.2342 35.392C21.4662 33.808 21.0822 31.984 21.0822 29.92ZM36.1302 29.956C36.1302 28.42 35.6982 27.208 34.8342 26.32C33.9942 25.432 32.9622 24.988 31.7382 24.988C30.5142 24.988 29.4702 25.432 28.6062 26.32C27.7662 27.184 27.3462 28.384 27.3462 29.92C27.3462 31.456 27.7662 32.68 28.6062 33.592C29.4702 34.48 30.5142 34.924 31.7382 34.924C32.9622 34.924 33.9942 34.48 34.8342 33.592C35.6982 32.704 36.1302 31.492 36.1302 29.956ZM52.8958 13.36V40H46.7398V13.36H52.8958ZM66.501 40.288C64.533 40.288 62.757 39.868 61.173 39.028C59.613 38.188 58.377 36.988 57.465 35.428C56.577 33.868 56.133 32.044 56.133 29.956C56.133 27.892 56.589 26.08 57.501 24.52C58.413 22.936 59.661 21.724 61.245 20.884C62.829 20.044 64.605 19.624 66.573 19.624C68.541 19.624 70.317 20.044 71.901 20.884C73.485 21.724 74.733 22.936 75.645 24.52C76.557 26.08 77.013 27.892 77.013 29.956C77.013 32.02 76.545 33.844 75.609 35.428C74.697 36.988 73.437 38.188 71.829 39.028C70.245 39.868 68.469 40.288 66.501 40.288ZM66.501 34.96C67.677 34.96 68.673 34.528 69.489 33.664C70.329 32.8 70.749 31.564 70.749 29.956C70.749 28.348 70.341 27.112 69.525 26.248C68.733 25.384 67.749 24.952 66.573 24.952C65.373 24.952 64.377 25.384 63.585 26.248C62.793 27.088 62.397 28.324 62.397 29.956C62.397 31.564 62.781 32.8 63.549 33.664C64.341 34.528 65.325 34.96 66.501 34.96ZM89.4229 40.288C87.4549 40.288 85.6789 39.868 84.0949 39.028C82.5349 38.188 81.2989 36.988 80.3869 35.428C79.4989 33.868 79.0549 32.044 79.0549 29.956C79.0549 27.892 79.5109 26.08 80.4229 24.52C81.3349 22.936 82.5829 21.724 84.1669 20.884C85.7509 20.044 87.5269 19.624 89.4949 19.624C91.4629 19.624 93.2389 20.044 94.8229 20.884C96.4069 21.724 97.6549 22.936 98.5669 24.52C99.4789 26.08 99.9349 27.892 99.9349 29.956C99.9349 32.02 99.4669 33.844 98.5309 35.428C97.6189 36.988 96.3589 38.188 94.7509 39.028C93.1669 39.868 91.3909 40.288 89.4229 40.288ZM89.4229 34.96C90.5989 34.96 91.5949 34.528 92.4109 33.664C93.2509 32.8 93.6709 31.564 93.6709 29.956C93.6709 28.348 93.2629 27.112 92.4469 26.248C91.6549 25.384 90.6709 24.952 89.4949 24.952C88.2949 24.952 87.2989 25.384 86.5069 26.248C85.7149 27.088 85.3189 28.324 85.3189 29.956C85.3189 31.564 85.7029 32.8 86.4709 33.664C87.2629 34.528 88.2469 34.96 89.4229 34.96ZM115.441 19.696C117.793 19.696 119.665 20.464 121.057 22C122.473 23.512 123.181 25.6 123.181 28.264V40H117.061V29.092C117.061 27.748 116.713 26.704 116.017 25.96C115.321 25.216 114.385 24.844 113.209 24.844C112.033 24.844 111.097 25.216 110.401 25.96C109.705 26.704 109.357 27.748 109.357 29.092V40H103.201V19.912H109.357V22.576C109.981 21.688 110.821 20.992 111.877 20.488C112.933 19.96 114.121 19.696 115.441 19.696ZM205.046 40.288C203.966 40.288 203.078 39.976 202.382 39.352C201.71 38.704 201.374 37.912 201.374 36.976C201.374 36.016 201.71 35.212 202.382 34.564C203.078 33.916 203.966 33.592 205.046 33.592C206.102 33.592 206.966 33.916 207.638 34.564C208.334 35.212 208.682 36.016 208.682 36.976C208.682 37.912 208.334 38.704 207.638 39.352C206.966 39.976 206.102 40.288 205.046 40.288Z" fill="#171D1C"/>
<path d="M139.807 19.696C142.111 19.696 143.959 20.464 145.351 22C146.743 23.512 147.439 25.6 147.439 28.264V40H141.319V29.092C141.319 27.748 140.971 26.704 140.275 25.96C139.579 25.216 138.643 24.844 137.467 24.844C136.291 24.844 135.355 25.216 134.659 25.96C133.963 26.704 133.615 27.748 133.615 29.092V40H127.459V13.36H133.615V22.612C134.239 21.724 135.091 21.016 136.171 20.488C137.251 19.96 138.463 19.696 139.807 19.696ZM150.492 29.92C150.492 27.856 150.876 26.044 151.644 24.484C152.436 22.924 153.504 21.724 154.848 20.884C156.192 20.044 157.692 19.624 159.348 19.624C160.764 19.624 162 19.912 163.056 20.488C164.136 21.064 164.964 21.82 165.54 22.756V19.912H171.696V40H165.54V37.156C164.94 38.092 164.1 38.848 163.02 39.424C161.964 40 160.728 40.288 159.312 40.288C157.68 40.288 156.192 39.868 154.848 39.028C153.504 38.164 152.436 36.952 151.644 35.392C150.876 33.808 150.492 31.984 150.492 29.92ZM165.54 29.956C165.54 28.42 165.108 27.208 164.244 26.32C163.404 25.432 162.372 24.988 161.148 24.988C159.924 24.988 158.88 25.432 158.016 26.32C157.176 27.184 156.756 28.384 156.756 29.92C156.756 31.456 157.176 32.68 158.016 33.592C158.88 34.48 159.924 34.924 161.148 34.924C162.372 34.924 163.404 34.48 164.244 33.592C165.108 32.704 165.54 31.492 165.54 29.956ZM179.246 17.824C178.166 17.824 177.278 17.512 176.582 16.888C175.91 16.24 175.574 15.448 175.574 14.512C175.574 13.552 175.91 12.76 176.582 12.136C177.278 11.488 178.166 11.164 179.246 11.164C180.302 11.164 181.166 11.488 181.838 12.136C182.534 12.76 182.882 13.552 182.882 14.512C182.882 15.448 182.534 16.24 181.838 16.888C181.166 17.512 180.302 17.824 179.246 17.824ZM182.306 19.912V40H176.15V19.912H182.306ZM192.923 23.26C193.643 22.156 194.543 21.292 195.623 20.668C196.703 20.02 197.903 19.696 199.223 19.696V26.212H197.531C195.995 26.212 194.843 26.548 194.075 27.22C193.307 27.868 192.923 29.02 192.923 30.676V40H186.767V19.912H192.923V23.26Z" fill="#5FBFF9"/>
</svg>
